# xmcd CD database file
#
# Track frame offsets:
#	150
#	18600
#	39145
#	55490
#	70540
#	87800
#	105016
#	127071
#	148971
#	171026
#
# Disc length: 2518 seconds
#
# Revision: 0
# Processed by: cddbd v1.5.1PL0 Copyright (c) Steve Scherf et al.
# Submitted via: CDex 1.51
#
DISCID=7e09d40a
DTITLE=さかばと - Festa
DYEAR=2005
DGENRE=Game
TTITLE0=同じ高みへ
TTITLE1=懐かしき東方の血
TTITLE2=First attack -YAMAHA MIX-
TTITLE3=Help Meeeeee!!
TTITLE4=さくらさくら -Eastern Dream-
TTITLE5=ethnosphere
TTITLE6=ねくろふぁんたじあ -Festa Style-
TTITLE7=Infinity Oblivion
TTITLE8=YOU
TTITLE9=夏風
EXTD=YEAR: 2005
EXTT0=
EXTT1=
EXTT2=
EXTT3=
EXTT4=
EXTT5=
EXTT6=
EXTT7=
EXTT8=
EXTT9=
PLAYORDER=
